<?xml version="1.0" encoding="UTF-8"?>
<svg version="1.1" xmlns="http://www.w3.org/2000/svg" width="259" height="249">
<path d="M0 0 C85.47 0 170.94 0 259 0 C259 82.17 259 164.34 259 249 C173.53 249 88.06 249 0 249 C0 166.83 0 84.66 0 0 Z " fill="#FBFBFB" transform="translate(0,0)"/>
<path d="M0 0 C17.94646391 -0.12032643 17.94646391 -0.12032643 25.66992188 -0.14648438 C30.91440072 -0.16433146 36.15872059 -0.18531123 41.40307617 -0.22631836 C45.6371108 -0.2592136 49.87097465 -0.27691572 54.10512733 -0.28463173 C55.71044918 -0.29012167 57.315763 -0.30084 58.92101097 -0.31719017 C77.613321 -0.49979121 95.05178399 3.11346679 110 15 C111.04607422 15.80050781 111.04607422 15.80050781 112.11328125 16.6171875 C124.39101372 26.58241502 134.07194118 43.23123323 136 59 C137.51837406 79.80172468 134.59322132 99.28079564 120.90234375 115.84765625 C108.08500583 130.34940819 93.36956835 138.58507077 74 141 C68.24387914 141.26179152 62.49901836 141.23416579 56.73828125 141.1953125 C55.09490635 141.19157431 53.45152919 141.18873115 51.80815125 141.18673706 C47.51907001 141.17916401 43.23012797 141.15957125 38.94110107 141.1373291 C33.77554449 141.11310075 28.60994092 141.1040595 23.44434357 141.09242249 C15.62946608 141.07314209 7.81489297 141.03477579 0 141 C0 125.16 0 109.32 0 93 C7.92 93 15.84 93 24 93 C24 91.68 24 90.36 24 89 C16.08 89 8.16 89 0 89 C0 83.72 0 78.44 0 73 C-3.08622824 73.03302384 -6.16523319 73.10019528 -9.25 73.1875 C-10.12269531 73.19330078 -10.99539062 73.19910156 -11.89453125 73.20507812 C-17.26607499 73.29117566 -17.26607499 73.29117566 -21.390625 76.4921875 C-21.92171875 77.31976563 -22.4528125 78.14734375 -23 79 C-26.47182124 79.92995212 -28.84734082 80.34268246 -32.3125 79.3125 C-35.33049002 76.96517443 -35.88298693 74.78565918 -36.4375 71.0625 C-36 68 -36 68 -33.875 65.125 C-31 63 -31 63 -28 62.4375 C-24.34092496 63.12357657 -22.64832324 64.42734314 -20 67 C-19.505 67.99 -19.505 67.99 -19 69 C-12.73 69.33 -6.46 69.66 0 70 C0 65.05 0 60.1 0 55 C11.22 55 22.44 55 34 55 C34 59.95 34 64.9 34 70 C37.96 70 41.92 70 46 70 C46.99 68.02 46.99 68.02 48 66 C49.6875 64.1875 49.6875 64.1875 52 63 C55.85899147 63.06891056 58.21376738 63.47584492 61.4375 65.625 C63.65946039 69.00237979 63.62601538 71.03523594 63 75 C61.00475077 77.93052231 59.57163515 79.64521503 56.02734375 80.4453125 C52.44341772 80.64628031 50.37656639 80.28242479 47.5 78.125 C46 76 46 76 46 74 C42.04 74 38.08 74 34 74 C34 85.88 34 97.76 34 110 C39.21162263 109.94862866 44.42042341 109.88524655 49.63110352 109.79248047 C51.39891194 109.76447367 53.16684086 109.74315955 54.93481445 109.72900391 C68.14993468 109.61691637 79.40685875 108.89724412 89.99609375 100.05078125 C98.72942349 91.11316309 101.58232112 80.30942389 101.47827148 68.22680664 C101.14228996 57.07675735 97.13235683 49.12337613 89.39453125 41.12890625 C81.24049228 33.87939363 71.99989938 31.75090272 61.34375 31.5859375 C60.55601196 31.56657135 59.76827393 31.5472052 58.95666504 31.5272522 C56.47121588 31.46806454 53.98571885 31.42131774 51.5 31.375 C49.80206452 31.33676405 48.10414727 31.29770916 46.40625 31.2578125 C42.27093494 31.16089105 38.13578475 31.08084353 34 31 C34 37.6 34 44.2 34 51 C22.78 51 11.56 51 0 51 C0 34.17 0 17.34 0 0 Z " fill="#20326C" transform="translate(63,51)"/>
<path d="M0 0 C11.22 0 22.44 0 34 0 C34 4.95 34 9.9 34 15 C37.96 15 41.92 15 46 15 C46.66 13.68 47.32 12.36 48 11 C49.6875 9.1875 49.6875 9.1875 52 8 C55.85899147 8.06891056 58.21376738 8.47584492 61.4375 10.625 C63.65946039 14.00237979 63.62601538 16.03523594 63 20 C61.00475077 22.93052231 59.57163515 24.64521503 56.02734375 25.4453125 C52.44341772 25.64628031 50.37656639 25.28242479 47.5 23.125 C46 21 46 21 46 19 C37.59422444 18.88412604 29.18878276 18.79529602 20.78240585 18.74093914 C16.87890149 18.71484969 12.97594369 18.6794654 9.07275391 18.62280273 C5.30556116 18.56845687 1.53889392 18.53857455 -2.22866058 18.52561378 C-3.66563948 18.51637826 -5.10258975 18.49834273 -6.53934479 18.47134972 C-8.55231146 18.43503682 -10.56580747 18.43295745 -12.57910156 18.43237305 C-13.72493713 18.42126999 -14.87077271 18.41016693 -16.05133057 18.39872742 C-19.92351453 19.18831679 -20.74547791 20.87009688 -23 24 C-26.47182124 24.92995212 -28.84734082 25.34268246 -32.3125 24.3125 C-35.33049002 21.96517443 -35.88298693 19.78565918 -36.4375 16.0625 C-36 13 -36 13 -33.875 10.125 C-31 8 -31 8 -28 7.4375 C-24.34092496 8.12357657 -22.64832324 9.42734314 -20 12 C-19.67 12.66 -19.34 13.32 -19 14 C-12.73 14.33 -6.46 14.66 0 15 C0 10.05 0 5.1 0 0 Z " fill="#D2A053" transform="translate(63,106)"/>
<path d="M0 0 C11.22 0 22.44 0 34 0 C34 4.95 34 9.9 34 15 C22.78 15 11.56 15 0 15 C0 10.05 0 5.1 0 0 Z " fill="#294780" transform="translate(63,106)"/>
<path d="M0 0 C0.66 1.32 1.32 2.64 2 4 C15.53 4 29.06 4 43 4 C43 5.32 43 6.64 43 8 C38.26774472 8.02481819 33.53552779 8.04291583 28.80322266 8.05493164 C27.19514302 8.05994375 25.5870679 8.06675519 23.97900391 8.07543945 C21.66047039 8.08764226 19.34199741 8.09325964 17.0234375 8.09765625 C16.31069672 8.10281754 15.59795593 8.10797882 14.86361694 8.11329651 C10.80143571 8.11374755 6.98511894 7.78775607 3 7 C2.79375 7.639375 2.5875 8.27875 2.375 8.9375 C1 11 1 11 -1.875 12 C-5 12 -5 12 -7.375 10.375 C-9.29109393 7.57455503 -9.59636329 6.3225955 -9 3 C-6.71619742 -0.67945972 -4.04424788 -0.26961653 0 0 Z " fill="#D1AC68" transform="translate(54,98)"/>
<path d="M0 0 C0.66 1.32 1.32 2.64 2 4 C11.9 4 21.8 4 32 4 C32 5.32 32 6.64 32 8 C31.14245117 7.97905273 30.28490234 7.95810547 29.40136719 7.93652344 C26.21081528 7.86823473 23.02063654 7.81814487 19.82958984 7.78027344 C18.4502332 7.76019358 17.07096131 7.73292334 15.69189453 7.69824219 C13.70643021 7.64957183 11.72033746 7.62913582 9.734375 7.609375 C8.54038086 7.58842773 7.34638672 7.56748047 6.11621094 7.54589844 C2.38030779 8.090303 1.41933552 9.21389268 -1 12 C-3.87523324 12.49089348 -5.29445572 12.41359492 -7.8125 10.9375 C-9.69021039 7.87386726 -9.43729494 5.49835955 -9 2 C-6.21829619 -1.29683415 -3.95718994 -1.56204866 0 0 Z " fill="#BF9853" transform="translate(55,136)"/>
<path d="M0 0 C24.42 0 48.84 0 74 0 C74 0.33 74 0.66 74 1 C49.91 1 25.82 1 1 1 C1.33 8.26 1.66 15.52 2 23 C1.92507628 27.98363589 1.81504003 32.90547657 1.5625 37.875 C1.51029297 39.06351563 1.45808594 40.25203125 1.40429688 41.4765625 C1.27825497 44.31823455 1.14363731 47.15917324 1 50 C2.01489502 49.89171875 2.01489502 49.89171875 3.05029297 49.78125 C9.44053568 49.14322265 15.70717735 48.89780537 22.125 49 C25.08879938 49.04504254 28.03513113 49.04791707 31 49 C33.11925604 46.88074396 32.41831017 42.3803907 32.5625 39.4375 C32.62727539 38.22803711 32.62727539 38.22803711 32.69335938 36.99414062 C32.79975262 34.99631195 32.90040888 32.9981793 33 31 C33.33 31 33.66 31 34 31 C34 37.6 34 44.2 34 51 C22.78 51 11.56 51 0 51 C0 34.17 0 17.34 0 0 Z " fill="#405C90" transform="translate(63,51)"/>
<path d="M0 0 C0 0.66 0 1.32 0 2 C-1.65 2.66 -3.3 3.32 -5 4 C-5.04254356 5.99954746 -5.04080783 8.00041636 -5 10 C-3.81575674 11.41577477 -3.81575674 11.41577477 -0.4375 11.0625 C1.2640625 11.0315625 1.2640625 11.0315625 3 11 C3.66 9.68 4.32 8.36 5 7 C5.33 8.65 5.66 10.3 6 12 C3.9375 14.0625 3.9375 14.0625 1 16 C-2.61431429 15.93768424 -4.97010393 15.78958699 -7.875 13.5625 C-10.21274269 10.31563515 -10.39777503 7.97775031 -10 4 C-7.16463433 -0.14399597 -4.86205069 -0.44200461 0 0 Z " fill="#CF9C47" transform="translate(37,115)"/>
<path d="M0 0 C10.89 0 21.78 0 33 0 C33 0.99 33 1.98 33 3 C21.78 3 10.56 3 -1 3 C-0.67 2.01 -0.34 1.02 0 0 Z " fill="#D1A96C" transform="translate(64,103)"/>
<path d="M0 0 C0.33 0.66 0.66 1.32 1 2 C0.34 2 -0.32 2 -1 2 C-0.67 3.98 -0.34 5.96 0 8 C-1.65 8.33 -3.3 8.66 -5 9 C-5 9.66 -5 10.32 -5 11 C-3.68 11.33 -2.36 11.66 -1 12 C-3.70313576 12.21917317 -5.43958382 12.32851983 -7.8125 10.9375 C-9.69021039 7.87386726 -9.43729494 5.49835955 -9 2 C-6.18772349 -1.33306846 -4.01502532 -1.41068457 0 0 Z " fill="#DBB370" transform="translate(55,136)"/>
<path d="M0 0 C2.5625 0.3125 2.5625 0.3125 4.4375 1.5 C5.5625 3.3125 5.5625 3.3125 5.375 5.875 C4.5625 8.3125 4.5625 8.3125 2.5625 10.3125 C-0.30762296 10.68046448 -1.84524618 10.68759409 -4.3125 9.125 C-5.4375 7.3125 -5.4375 7.3125 -5.25 4.75 C-4.18108204 1.54324612 -3.41484064 0.43780008 0 0 Z " fill="#F9F6F2" transform="translate(117.4375,117.6875)"/>
<path d="M0 0 C7.59 0 15.18 0 23 0 C22.67 1.98 22.34 3.96 22 6 C21.34 6 20.68 6 20 6 C20 5.34 20 4.68 20 4 C18.82244141 4.01740234 18.82244141 4.01740234 17.62109375 4.03515625 C11.96280225 4.08375507 6.57121122 4.01294749 1 3 C0.67 2.01 0.34 1.02 0 0 Z " fill="#CD994E" transform="translate(89,121)"/>
<path d="M0 0 C8.58 0 17.16 0 26 0 C26.33 0.99 26.66 1.98 27 3 C18.09 3 9.18 3 0 3 C0 2.01 0 1.02 0 0 Z " fill="#E7C073" transform="translate(63,121)"/>
<path d="M0 0 C3.0625 0.1875 3.0625 0.1875 5.0625 2.1875 C5.3125 4.6875 5.3125 4.6875 5.0625 7.1875 C3.0625 9.1875 3.0625 9.1875 0.5625 9.4375 C-1.9375 9.1875 -1.9375 9.1875 -3.9375 7.1875 C-4.125 4.125 -4.125 4.125 -3.9375 1.1875 C-2.9375 0.1875 -2.9375 0.1875 0 0 Z " fill="#FDFCFA" transform="translate(34.9375,117.8125)"/>
<path d="M0 0 C0.66 1.32 1.32 2.64 2 4 C1.34 4 0.68 4 0 4 C-0.33 5.65 -0.66 7.3 -1 9 C-1.763125 8.835 -2.52625 8.67 -3.3125 8.5 C-6.03596236 7.90854604 -6.03596236 7.90854604 -9 8 C-9.22223194 5.25913944 -9.34781139 3.56036279 -7.875 1.1875 C-5.22464043 -0.49106106 -3.06753576 -0.20450238 0 0 Z " fill="#DCB46C" transform="translate(54,98)"/>
<path d="M0 0 C0.99 0 1.98 0 3 0 C2.52039967 6.35470441 2.52039967 6.35470441 0.4375 8.9375 C-3.31694716 10.57405389 -5.90458076 10.45504658 -10 10 C-12 8 -12 8 -13 6 C-12.34 5.01 -11.68 4.02 -11 3 C-10.608125 3.495 -10.21625 3.99 -9.8125 4.5 C-8.05777138 6.22684461 -8.05777138 6.22684461 -5.4375 6.3125 C-2.82203581 6.22966747 -2.82203581 6.22966747 -1 4 C-0.3574765 1.93125966 -0.3574765 1.93125966 0 0 Z " fill="#C9923E" transform="translate(123,121)"/>
<path d="M0 0 C5.94 0 11.88 0 18 0 C18 0.99 18 1.98 18 3 C12.39 3 6.78 3 1 3 C0.67 2.01 0.34 1.02 0 0 Z " fill="#D39E4B" transform="translate(45,121)"/>
<path d="M0 0 C0 0.66 0 1.32 0 2 C-1.65 2.66 -3.3 3.32 -5 4 C-5.72256829 8.48133574 -5.72256829 8.48133574 -6 13 C-6.99 12.67 -7.98 12.34 -9 12 C-10.42041821 9.15916359 -10.31452272 7.14522722 -10 4 C-7.16463433 -0.14399597 -4.86205069 -0.44200461 0 0 Z " fill="#CF9743" transform="translate(37,115)"/>
<path d="M0 0 C2.54838248 3.82257373 2.56941517 6.58372191 2 11 C0.83305989 15.72357061 -0.53957968 20.35794969 -2 25 C-2.66 25 -3.32 25 -4 25 C-3.86722656 24.21367187 -3.73445312 23.42734375 -3.59765625 22.6171875 C-2.85513863 18.12325732 -2.14562252 13.62445794 -1.4375 9.125 C-1.29892578 8.24585937 -1.16035156 7.36671875 -1.01757812 6.4609375 C-0.67815064 4.30732866 -0.33904301 2.15366941 0 0 Z " fill="#1C275D" transform="translate(166,116)"/>
<path d="M0 0 C2.0625 0.4375 2.0625 0.4375 4 1 C4.33 2.65 4.66 4.3 5 6 C3.34385343 6.38218767 1.67542976 6.71395102 0 7 C-1 6 -1 6 -1.125 3.5 C-1 1 -1 1 0 0 Z " fill="#F7EFE1" transform="translate(50,138)"/>
<path d="M0 0 C1.65 0.33 3.3 0.66 5 1 C4.67 2.65 4.34 4.3 4 6 C2.35 5.67 0.7 5.34 -1 5 C-0.67 3.35 -0.34 1.7 0 0 Z " fill="#FBFAF7" transform="translate(49,101)"/>
<path d="M0 0 C4.29 0 8.58 0 13 0 C13 0.33 13 0.66 13 1 C9.7 1.33 6.4 1.66 3 2 C2.34 3.98 1.68 5.96 1 8 C0.67 8 0.34 8 0 8 C0 5.36 0 2.72 0 0 Z " fill="#1C3679" transform="translate(64,125)"/>
<path d="M0 0 C0.3403125 0.928125 0.3403125 0.928125 0.6875 1.875 C2.37929835 4.61410209 3.99244161 5.05024472 7 6 C4 8 4 8 1 9 C0.34 8.34 -0.32 7.68 -1 7 C-0.34 7 0.32 7 1 7 C0.67 4.69 0.34 2.38 0 0 Z " fill="#D9AD66" transform="translate(30,121)"/>
<path d="M0 0 C3 3.625 3 3.625 3 7 C4.32 7.33 5.64 7.66 7 8 C4.625 8.125 4.625 8.125 2 8 C0 6 0 6 -0.125 2.875 C-0.08375 1.92625 -0.0425 0.9775 0 0 Z " fill="#D8AE64" transform="translate(47,140)"/>
<path d="M0 0 C1.98 0 3.96 0 6 0 C6 0.99 6 1.98 6 3 C4.35 3 2.7 3 1 3 C0.67 2.01 0.34 1.02 0 0 Z " fill="#D3A45D" transform="translate(89,121)"/>
</svg>
